<?xml version="1.0" encoding="UTF-8" standalone="no"?>
<!-- Created with Inkscape (http://www.inkscape.org/) -->

<svg
   width="3.7490344mm"
   height="14.332097mm"
   viewBox="0 0 3.7490341 14.332098"
   version="1.1"
   id="svg3213"
   inkscape:version="1.2.2 (b0a8486541, 2022-12-01, custom)"
   sodipodi:docname="Sign_Iber_Noro_Dual__16_BA.svg"
   xmlns:inkscape="http://www.inkscape.org/namespaces/inkscape"
   xmlns:sodipodi="http://sodipodi.sourceforge.net/DTD/sodipodi-0.dtd"
   xmlns="http://www.w3.org/2000/svg"
   xmlns:svg="http://www.w3.org/2000/svg">
  <sodipodi:namedview
     id="namedview3215"
     pagecolor="#ffffff"
     bordercolor="#000000"
     borderopacity="0.25"
     inkscape:showpageshadow="2"
     inkscape:pageopacity="0.0"
     inkscape:pagecheckerboard="0"
     inkscape:deskcolor="#d1d1d1"
     inkscape:document-units="mm"
     showgrid="false"
     inkscape:zoom="1.3534384"
     inkscape:cx="128.56145"
     inkscape:cy="131.88631"
     inkscape:window-width="1526"
     inkscape:window-height="836"
     inkscape:window-x="0"
     inkscape:window-y="0"
     inkscape:window-maximized="1"
     inkscape:current-layer="layer1" />
  <defs
     id="defs3210" />
  <g
     inkscape:label="Calque 1"
     inkscape:groupmode="layer"
     id="layer1"
     transform="translate(-17.87253,-96.871531)">
    <path
       d="m 20.59599,111.13492 c -0.04521,-0.0444 -0.114375,-0.0705 -0.153686,-0.0581 -0.08048,0.0255 -0.40903,-0.39437 -0.41089,-0.52508 -0.001,-0.0753 -0.0084,-0.0753 -0.06589,0 -0.05039,0.066 -0.0559,0.0562 -0.02496,-0.0445 0.02185,-0.0711 -0.03137,-0.46519 -0.118267,-0.87574 -0.0869,-0.41054 -0.215484,-1.17866 -0.285737,-1.70692 -0.07025,-0.52826 -0.178931,-1.26557 -0.241517,-1.63847 -0.06258,-0.37289 -0.130474,-0.84324 -0.150878,-1.04522 -0.0204,-0.20199 -0.08025,-0.59607 -0.132993,-0.87574 -0.05275,-0.27967 -0.148803,-0.80087 -0.213464,-1.15822 -0.06466,-0.35736 -0.133775,-0.73872 -0.153588,-0.84748 -0.01982,-0.10876 -0.03449,-0.25686 -0.0326,-0.32911 0.0019,-0.0723 -0.02087,-0.17395 -0.05057,-0.226 -0.0297,-0.0521 -0.07053,-0.22175 -0.09074,-0.37712 -0.02021,-0.15538 -0.0935,-0.47318 -0.162863,-0.70624 -0.308026,-1.034939 -0.377466,-1.365769 -0.409116,-1.949209 -0.04569,-0.8423 -0.03278,-1.11041 0.05745,-1.19319 0.0242,-0.0222 0.04401,-0.14127 0.04401,-0.26459 0,-0.26796 0.214492,-0.49561 0.406597,-0.43155 0.0643,0.0214 0.140784,0.0262 0.169977,0.0106 0.02919,-0.0156 0.07548,0.005 0.102851,0.0455 0.06999,0.10389 0.24549,0.1167 0.285584,0.0208 0.04427,-0.10583 0.115415,-0.10128 0.266047,0.017 0.135543,0.10646 0.170383,0.21749 0.04689,0.14943 -0.06141,-0.0338 -0.06151,-0.0249 -6.16e-4,0.0442 0.04205,0.0477 0.05591,0.10747 0.03079,0.1329 -0.02511,0.0254 -0.01101,0.028 0.03133,0.006 0.04429,-0.0234 0.08,-0.009 0.08409,0.0333 0.01472,0.1532 0.02603,0.18989 0.09252,0.29995 0.113057,0.18716 0.157715,0.57975 0.06966,0.61235 -0.04583,0.017 -0.03336,0.0303 0.03088,0.0329 0.117503,0.005 0.144485,0.09 0.04619,0.1457 -0.03387,0.0192 -0.06159,0.0764 -0.06159,0.12714 0,0.0776 0.01375,0.075 0.08649,-0.0163 0.07957,-0.0998 0.08979,-0.086 0.127727,0.17282 0.02268,0.15473 0.06581,0.35214 0.09583,0.43869 0.08297,0.23918 0.414289,1.984339 0.423946,2.233049 0.0028,0.0717 0.02828,0.11729 0.05666,0.10121 0.02837,-0.0161 0.05609,0.0763 0.06161,0.20521 0.0055,0.12895 0.03172,0.24867 0.05825,0.26603 0.02653,0.0174 0.05159,0.0951 0.05571,0.17282 0.02217,0.41898 0.04105,0.54651 0.0951,0.64243 0.04415,0.0783 0.04032,0.0948 -0.01478,0.0636 -0.07523,-0.0427 -0.07236,-0.019 0.03785,0.31101 0.02594,0.0777 0.04001,0.19845 0.03128,0.26836 -0.0087,0.0699 0.0069,0.12713 0.0347,0.12714 0.02783,0 0.05847,0.13348 0.06809,0.29662 0.02324,0.39428 0.132777,0.95359 0.207428,1.05921 0.05587,0.0791 0.04659,-0.12576 -0.0349,-0.76946 -0.01227,-0.097 0.0019,-0.21141 0.03146,-0.25425 0.03961,-0.0574 0.05657,-0.0407 0.06436,0.0634 0.03047,0.40667 0.09501,0.88572 0.126354,0.93793 0.01678,0.0279 0.03634,0.17573 0.04347,0.32842 0.0071,0.15269 0.01593,0.29252 0.01955,0.31074 0.0036,0.0182 -0.02579,0.10517 -0.06537,0.19322 -0.04832,0.1075 -0.05342,0.21885 -0.0155,0.33899 0.03106,0.0984 0.05896,0.14713 0.06202,0.10828 0.0031,-0.0388 0.03327,-0.0706 0.06714,-0.0706 0.03387,0 0.06159,0.10005 0.06159,0.22232 0,0.12227 0.02971,0.29389 0.06602,0.38137 0.03631,0.0875 0.07779,0.28617 0.09219,0.44154 0.01439,0.15537 0.04332,0.41297 0.06429,0.57243 0.02436,0.18527 0.01164,0.32805 -0.03524,0.39549 -0.06049,0.087 -0.06761,0.0885 -0.04054,0.008 0.01806,-0.0535 -0.0075,-0.19332 -0.05688,-0.31074 l -0.08972,-0.21349 0.03964,0.31074 c 0.0218,0.17091 0.04835,0.43787 0.05899,0.59324 0.01064,0.15537 0.03348,0.38419 0.05075,0.50849 0.01727,0.1243 0.01639,0.1815 -0.002,0.12712 -0.01836,-0.0544 -0.05732,-0.0989 -0.08658,-0.0989 -0.05261,0 -0.03042,0.2262 0.06219,0.63398 0.03446,0.15175 0.02452,0.22792 -0.03572,0.27379 -0.04591,0.035 -0.08107,0.0802 -0.07814,0.1005 0.01514,0.10509 -0.01531,0.18144 -0.06185,0.15506 -0.07987,-0.0453 -0.189752,0.22002 -0.153489,0.37058 0.0264,0.10956 0.01941,0.11797 -0.03991,0.0481 -0.05786,-0.0682 -0.0643,-0.053 -0.03298,0.0779 0.05337,0.22293 -0.01925,0.50262 -0.121181,0.46674 -0.04428,-0.0156 -0.09788,-0.0124 -0.119111,0.007 -0.07254,0.0666 -0.1895,0.0558 -0.271775,-0.025 z m 0.880787,-3.68671 c 0.01949,-0.0289 0.0073,-0.0686 -0.02716,-0.0881 -0.03443,-0.0195 -0.06259,0.004 -0.06259,0.0526 0,0.0992 0.03696,0.11385 0.08975,0.0355 z m -0.170857,-0.57949 c -0.01966,-0.0451 -0.03426,-0.0317 -0.03721,0.0341 -0.0026,0.0596 0.01189,0.0929 0.03235,0.0742 0.02047,-0.0188 0.02265,-0.0675 0.0049,-0.10829 z m -0.028,-0.31517 c 0.01564,-0.0549 0.007,-0.15022 -0.01928,-0.21187 -0.03635,-0.0854 -0.04876,-0.0616 -0.05205,0.0998 -0.0046,0.22702 0.0252,0.27392 0.07133,0.11209 z m -0.137248,-0.91721 c 0,-0.0622 -0.01062,-0.113 -0.02361,-0.113 -0.01298,0 -0.03811,0.0508 -0.05582,0.113 -0.01772,0.0622 -0.0071,0.113 0.02361,0.113 0.0307,0 0.05582,-0.0508 0.05582,-0.113 z m -0.01694,-0.33899 c -0.0051,-0.0622 -0.03109,-0.113 -0.05776,-0.113 -0.05829,0 -0.05991,0.0199 -0.0111,0.13663 0.05108,0.12211 0.08001,0.11219 0.06885,-0.0236 z m 0.01694,-0.226 c 0,-0.0311 -0.02772,-0.0565 -0.06159,-0.0565 -0.03387,0 -0.06159,0.0254 -0.06159,0.0565 0,0.0311 0.02771,0.0565 0.06159,0.0565 0.03387,0 0.06159,-0.0254 0.06159,-0.0565 z m -1.25066,-5.578179 c -0.01562,-0.055 -0.02942,-0.0237 -0.03068,0.0695 -0.0012,0.0932 0.01152,0.1382 0.02839,0.1 0.01687,-0.0383 0.0179,-0.11452 0.0023,-0.1695 z m -0.09933,-0.45129 c -0.0556,-0.0862 -0.06129,-0.0803 -0.03952,0.0406 0.04472,0.24844 0.04838,0.25595 0.07666,0.15714 0.01529,-0.0534 -0.0014,-0.14239 -0.03714,-0.19774 z m 1.478031,6.730999 c 0.003,-0.0658 0.01755,-0.0792 0.03721,-0.0341 0.01779,0.0408 0.01561,0.0895 -0.0049,0.10829 -0.02047,0.0188 -0.03502,-0.0146 -0.03235,-0.0742 z m -0.30794,-2.25995 c 0.003,-0.0658 0.01755,-0.0792 0.03721,-0.0341 0.01779,0.0408 0.01561,0.0895 -0.0049,0.10829 -0.02047,0.0188 -0.03502,-0.0146 -0.03235,-0.0742 z m -0.241486,-1.60551 c 0,-0.0777 0.01398,-0.10947 0.03106,-0.0706 0.01708,0.0388 0.01708,0.1024 0,0.14125 -0.01708,0.0388 -0.03106,0.007 -0.03106,-0.0706 z m -0.06645,-0.31544 c 0.003,-0.0658 0.01755,-0.0792 0.03721,-0.0341 0.01779,0.0408 0.01561,0.0895 -0.0049,0.10829 -0.02047,0.0188 -0.03503,-0.0146 -0.03235,-0.0742 z"
       style="fill:#000000;stroke-width:0.0589885"
       id="path2086"
       sodipodi:nodetypes="cccsssssssssscssssssscssscssssscssssssccccccscsscsscccssscsssssscccssscsscccsccscccsssscccccsccssssssssssssssssssccsscssccsccccscccscssscsccc" />
  </g>
</svg>
